:SAMPLES-PER-SECOND 30
:FULLY-SPECIFIED
:DEGREES
262
root  5.53324 34.1171 -6.22219 3.37186 19.3829 4.00399
LeftUpLeg  -4.30102 9.56739 -0.289949
LeftLeg  10.0093 3.62616 0.400667
LeftFoot  1.99656 -0.0147479 0.146858
LeftToes  -17.6827 8.556e-007 1.17171e-007
Spine  1.93574 1.50294 -1.20637
Spine1  3.5483 3.28815 -2.55061
RightShoulder  0.0354003 0.118787 -0.219179
RightArm  -13.0603 27.3619 73.6088
RightForeArm  139.56 57.1276 163.796
RightHand  1.32035 -15.2974 -9.43431
LeftShoulder1  0.0288386 -1.7574 -7.99299
LeftArm  -14.8477 13.7146 -70.1229
LeftForeArm  26.1389 -19.9191 -3.65675
LeftHand  0.1258 4.35887 2.93005
HEad  20.7594 -5.28193 -7.72576
RightUpLeg  -4.99794 2.88343 -12.5372
RightLeg  7.13973 12.176 0.733812
RightFoot  4.38828 -0.0211004 0.984093
RightToes  -43.8862 -0.250248 -0.335283
263
root  5.59915 34.1004 -6.41432 3.5391 19.0971 4.17116
LeftUpLeg  -4.82211 10.074 -0.705464
LeftLeg  10.3397 3.39787 0.395194
LeftFoot  1.85332 -0.0134371 0.134046
LeftToes  -17.4003 8.556e-007 1.17171e-007
Spine  2.05238 1.57292 -1.41695
Spine1  3.74615 3.45001 -2.9619
RightShoulder  0.0372267 -0.443392 -0.499484
RightArm  -13.2563 33.2052 74.6054
RightForeArm  138.464 55.885 164.554
RightHand  1.24415 -15.6732 -8.64767
LeftShoulder1  0.0363039 -2.04969 -8.02721
LeftArm  -15.4337 14.1051 -69.6846
LeftForeArm  27.0566 -18.453 -3.36656
LeftHand  0.130245 4.5264 2.92028
HEad  21.1757 -6.14775 -7.09144
RightUpLeg  -5.61717 3.22378 -12.9283
RightLeg  7.44892 12.0422 0.790621
RightFoot  4.54095 -0.0220812 1.01409
RightToes  -44.0183 -0.251353 -0.336254
264
root  5.65764 34.0822 -6.58361 3.70913 18.8226 4.27242
LeftUpLeg  -5.21888 10.5256 -1.03268
LeftLeg  10.4146 3.1862 0.374744
LeftFoot  1.8137 -0.0126194 0.12899
LeftToes  -17.3299 8.556e-007 1.17171e-007
Spine  2.1193 1.64681 -1.60757
Spine1  3.85143 3.61845 -3.3306
RightShoulder  0.0395492 -0.770211 -0.577705
RightArm  -12.7147 37.5975 75.8485
RightForeArm  137.937 54.9192 165.107
RightHand  1.09191 -15.9756 -7.39672
LeftShoulder1  0.0431317 -2.24686 -8.09838
LeftArm  -16.3642 14.702 -69.1998
LeftForeArm  28.0371 -17.2393 -3.13009
LeftHand  0.134847 4.71163 2.90266
HEad  21.8326 -7.03154 -6.44542
RightUpLeg  -6.16542 3.58555 -13.2333
RightLeg  7.59209 11.8834 0.809945
RightFoot  4.75349 -0.0241751 1.05402
RightToes  -44.3447 -0.253501 -0.337124
265
root  5.70604 34.0685 -6.73085 3.78686 18.5154 4.35272
LeftUpLeg  -5.50315 10.7783 -1.29625
LeftLeg  10.5167 3.16127 0.377499
LeftFoot  1.7394 -0.0121506 0.129322
LeftToes  -17.213 8.556e-007 1.17171e-007
Spine  2.21814 1.77896 -1.7744
Spine1  4.02331 3.91562 -3.66682
RightShoulder  0.0420814 -0.972115 -0.663461
RightArm  -11.5441 40.4302 77.3973
RightForeArm  137.772 54.0067 165.604
RightHand  1.00025 -16.3084 -6.59979
LeftShoulder1  0.0475181 -2.41573 -8.07799
LeftArm  -17.4674 15.2589 -68.8172
LeftForeArm  28.7647 -16.0513 -2.90181
LeftHand  0.149508 4.93467 3.09434
HEad  22.5835 -7.76737 -5.90724
RightUpLeg  -6.61853 3.90892 -13.4846
RightLeg  7.76959 11.8016 0.840923
RightFoot  4.92024 -0.0264648 1.09012
RightToes  -44.5448 -0.256144 -0.337896
266
root  5.73653 34.0582 -6.87114 3.76469 18.2717 4.3662
LeftUpLeg  -5.77028 10.9134 -1.46107
LeftLeg  10.7294 3.22497 0.397244
LeftFoot  1.65376 -0.0119093 0.133031
LeftToes  -17.0653 8.556e-007 1.17171e-007
Spine  2.37857 1.94986 -1.89747
Spine1  4.31226 4.30885 -3.94002
RightShoulder  0.0447944 -1.09055 -0.80318
RightArm  -10.4167 41.6924 79.0048
RightForeArm  138.032 53.2492 165.997
RightHand  0.832758 -17.0954 -5.16441
LeftShoulder1  0.0493123 -2.46228 -8.00017
LeftArm  -18.6292 15.6026 -68.5274
LeftForeArm  29.3969 -14.9824 -2.69884
LeftHand  0.162908 5.19752 3.21383
HEad  22.626 -8.00828 -5.37659
RightUpLeg  -6.98374 4.31774 -13.6329
RightLeg  7.9617 11.6027 0.865766
RightFoot  5.08104 -0.0283572 1.11362
RightToes  -44.8584 -0.258697 -0.338569
267
root  5.74959 34.0489 -7.00937 3.71187 18.1146 4.34211
LeftUpLeg  -6.05635 10.8226 -1.56861
LeftLeg  10.9937 3.4229 0.437665
LeftFoot  1.56816 -0.0119664 0.141094
LeftToes  -16.8442 8.556e-007 1.17171e-007
Spine  2.56542 2.14231 -1.97342
Spine1  4.65058 4.75376 -4.1325
RightShoulder  0.0476436 -1.14417 -0.781922
RightArm  -9.12877 41.9727 79.9976
RightForeArm  138.549 52.9546 166.145
RightHand  0.863076 -17.3651 -5.27534
LeftShoulder1  0.0505828 -2.49137 -7.93783
LeftArm  -19.581 15.8583 -68.239
LeftForeArm  29.9552 -14.1807 -2.54795
LeftHand  0.175164 5.45052 3.30445
HEad  21.8551 -7.60008 -4.55896
RightUpLeg  -7.3942 4.63234 -13.7211
RightLeg  8.3316 11.4202 0.92599
RightFoot  5.19527 -0.0300981 1.12881
RightToes  -45.1144 -0.260573 -0.339144
268
root  5.75428 34.0484 -7.13634 3.67147 17.9066 4.23849
LeftUpLeg  -6.30119 10.9061 -1.58001
LeftLeg  11.1187 3.50828 0.456365
LeftFoot  1.58363 -0.0121354 0.150489
LeftToes  -16.7155 8.556e-007 1.17171e-007
Spine  2.70648 2.34327 -1.99368
Spine1  4.90801 5.20525 -4.21079
RightShoulder  0.0508649 -1.01467 -0.69719
RightArm  -8.41001 41.6973 80.5669
RightForeArm  137.868 53.6284 165.802
RightHand  0.84271 -17.0261 -5.25355
LeftShoulder1  0.0513824 -2.48792 -7.89406
LeftArm  -20.1848 16.1786 -67.9141
LeftForeArm  30.3226 -13.6504 -2.44875
LeftHand  0.174513 5.51953 3.24504
HEad  20.9399 -6.35591 -3.45105
RightUpLeg  -7.93965 4.60836 -13.7114
RightLeg  8.92686 11.5625 1.05756
RightFoot  5.21332 -0.0328595 1.1543
RightToes  -45.0016 -0.261803 -0.339622
269
root  5.7529 34.0438 -7.25337 3.67918 17.7456 4.26063
LeftUpLeg  -6.48553 11.0378 -1.69518
LeftLeg  11.1172 3.51489 0.457134
LeftFoot  1.64201 -0.012375 0.16045
LeftToes  -16.6189 8.556e-007 1.17171e-007
Spine  2.81872 2.5522 -2.04106
Spine1  5.09478 5.68107 -4.3545
RightShoulder  0.0558999 -0.698442 -0.784226
RightArm  -8.78232 40.9582 80.6461
RightForeArm  138.033 54.4915 165.342
RightHand  0.800095 -16.8089 -5.03946
LeftShoulder1  0.0517637 -2.45032 -7.93652
LeftArm  -20.3829 16.4432 -67.438
LeftForeArm  30.7236 -13.3588 -2.39427
LeftHand  0.17544 5.51637 3.25593
HEad  19.1734 -3.56377 -2.10546
RightUpLeg  -8.62531 4.61451 -13.8097
RightLeg  9.88433 11.5343 1.24829
RightFoot  4.9713 -0.0315566 1.11166
RightToes  -44.9598 -0.262816 -0.340003
270
root  5.74633 34.0245 -7.35171 3.78884 17.82 4.53669
LeftUpLeg  -6.71457 11.0964 -2.0284
LeftLeg  11.1808 3.38346 0.443821
LeftFoot  1.67679 -0.0123694 0.165941
LeftToes  -16.5453 8.556e-007 1.17171e-007
Spine  2.89354 2.74564 -2.17213
Spine1  5.18115 6.13755 -4.67335
RightShoulder  0.060099 -0.194917 -0.935201
RightArm  -9.7261 39.4922 79.8233
RightForeArm  139.834 54.8991 165.112
RightHand  0.935531 -16.1128 -6.22981
LeftShoulder1  0.0517795 -2.40542 -8.0048
LeftArm  -20.2821 16.5571 -66.7945
LeftForeArm  31.0673 -13.2271 -2.36961
LeftHand  0.175874 5.50464 3.23208
HEad  16.6236 0.256929 -0.489651
RightUpLeg  -9.28987 5.00177 -14.1413
RightLeg  10.9545 10.8344 1.37723
RightFoot  4.49986 -0.0240726 0.968482
RightToes  -45.2206 -0.263622 -0.340287
271
root  5.74093 33.9949 -7.41988 3.90844 18.3808 4.82164
LeftUpLeg  -7.00124 10.8275 -2.33353
LeftLeg  11.4092 3.0541 0.412898
LeftFoot  1.61352 -0.0114843 0.156985
LeftToes  -16.5037 8.556e-007 1.17171e-007
Spine  2.97166 2.84035 -2.2687
Spine1  5.29271 6.36677 -4.8937
RightShoulder  0.0620367 0.0402453 -0.805503
RightArm  -10.5984 37.4491 78.362
RightForeArm  141.658 55.188 164.944
RightHand  1.01164 -15.2504 -7.17278
LeftShoulder1  0.0514825 -2.31498 -8.2037
LeftArm  -20.0419 16.2946 -66.1332
LeftForeArm  31.3236 -13.0942 -2.3448
LeftHand  0.178316 5.47697 3.34
HEad  13.7489 4.55688 0.853316
RightUpLeg  -9.63743 4.77242 -14.4709
RightLeg  11.8219 10.3783 1.47883
RightFoot  3.88526 -0.0169344 0.826499
RightToes  -45.4433 -0.264232 -0.340475
272
root  5.73626 33.9694 -7.46751 4.04038 19.3176 4.99515
LeftUpLeg  -7.40855 10.4219 -2.5193
LeftLeg  11.8279 2.51624 0.358694
LeftFoot  1.49205 -0.0099579 0.137156
LeftToes  -16.431 8.556e-007 1.17171e-007
Spine  3.02094 2.82402 -2.2962
Spine1  5.37636 6.33756 -4.94118
RightShoulder  0.0634148 0.156701 -0.475187
RightArm  -11.1844 34.641 76.5061
RightForeArm  142.817 55.6693 164.665
RightHand  1.03184 -14.4226 -7.76795
LeftShoulder1  0.0509254 -2.07149 -8.51099
LeftArm  -20.0264 15.7103 -65.593
LeftForeArm  31.5098 -12.9574 -2.31934
LeftHand  0.179343 5.49823 3.35942
HEad  11.0828 9.11264 1.61413
RightUpLeg  -9.69788 4.63945 -14.6765
RightLeg  12.3225 9.06189 1.37335
RightFoot  3.37655 -0.008222 0.656364
RightToes  -45.7392 -0.264656 -0.340568
